<?xml version="1.0" encoding="UTF-8" standalone="no"?>
<!DOCTYPE svg PUBLIC "-//W3C//DTD SVG 1.1//EN" "http://www.w3.org/Graphics/SVG/1.1/DTD/svg11.dtd">
<!-- Created with Vectornator (http://vectornator.io/) -->
<svg height="100%" stroke-miterlimit="10" style="fill-rule:nonzero;clip-rule:evenodd;stroke-linecap:round;stroke-linejoin:round;" version="1.1" viewBox="0 0 1024 1024" width="100%" xml:space="preserve" xmlns="http://www.w3.org/2000/svg" xmlns:vectornator="http://vectornator.io" xmlns:xlink="http://www.w3.org/1999/xlink">
<defs/>
<g id="Layer-2" vectornator:layerName="Layer 2">
<path d="M0 140C0 62.6801 62.6801 4.03587e-14 140 4.03587e-14L884 4.03587e-14C961.32 4.03587e-14 1024 62.6801 1024 140L1024 884C1024 961.32 961.32 1024 884 1024L140 1024C62.6801 1024 0 961.32 0 884L0 140Z" fill="#fbf9e8" fill-rule="nonzero" opacity="1" stroke="#000000" stroke-linecap="round" stroke-linejoin="round" stroke-width="0" vectornator:layerName="Rectangle 1"/>
</g>
<g id="Layer-1" vectornator:layerName="Layer 1">
<g opacity="1" vectornator:layerName="Group 1">
<path d="M869.537 87.6035C883.362 87.6035 893.373 90.1063 899.57 95.1118C905.767 100.117 908.866 108.102 908.866 119.067C908.866 121.45 908.389 126.456 907.436 134.083L854.521 435.845C851.66 451.576 843.079 463.017 828.778 470.168C814.476 477.319 793.739 480.894 766.566 480.894C743.207 480.894 726.761 478.392 717.226 473.386C707.692 468.38 702.925 459.919 702.925 448.001C702.925 445.617 703.402 441.565 704.355 435.845L738.678 241.344L609.25 241.344L512.715 789.806L674.322 789.806C686.716 789.806 695.774 792.309 701.495 797.315C707.215 802.32 710.076 811.735 710.076 825.56C710.076 835.094 708.645 847.727 705.785 863.459C702.448 883.481 698.396 898.736 693.629 909.224C688.862 919.711 683.022 926.862 676.11 930.676C669.197 934.49 660.02 936.396 648.579 936.396L160.899 936.396C148.027 936.396 138.731 933.775 133.011 928.531C127.29 923.287 124.43 913.752 124.43 899.928C124.43 888.01 125.622 875.854 128.005 863.459C133.249 834.379 140.161 814.834 148.742 804.823C157.323 794.812 169.956 789.806 186.641 789.806L333.947 789.806L430.482 241.344L301.053 241.344L266.73 435.845C263.869 451.576 255.288 463.017 240.987 470.168C226.685 477.319 205.948 480.894 178.775 480.894C155.416 480.894 138.97 478.392 129.435 473.386C119.901 468.38 115.134 459.919 115.134 448.001C115.134 445.617 115.611 441.565 116.564 435.845L169.479 134.083C172.34 117.875 178.06 106.076 186.641 98.6872C195.222 91.2981 207.855 87.6035 224.54 87.6035L869.537 87.6035Z" fill="#000000" fill-rule="nonzero" opacity="1" stroke="none"/>
</g>
</g>
</svg>
