<?xml version="1.0" encoding="UTF-8"?><!-- Created with Vectornator (http://vectornator.io/) --><svg xmlns="http://www.w3.org/2000/svg" xmlns:vectornator="http://vectornator.io" xmlns:xlink="http://www.w3.org/1999/xlink" height="1024.0px" stroke-miterlimit="10" version="1.2" viewBox="0 0 1024 1024" width="1024.0px" xml:space="preserve" baseProfile="tiny-ps" fill-rule="nonzero" stroke-linecap="round" stroke-linejoin="round"><title>T.svg</title><defs></defs><g id="Layer-2"><path d="M0 4.03587e-14L1024 4.03587e-14L1024 1024L0 1024L0 4.03587e-14Z" fill="#fbf9e8" fill-rule="nonzero" stroke="#000000" stroke-linecap="round" stroke-linejoin="round" stroke-width="0"></path></g><g id="Layer-1"><g><path d="M831.266 134.483C843.611 134.483 852.551 136.709 858.085 141.162C863.619 145.614 866.386 152.717 866.386 162.471C866.386 164.591 865.96 169.044 865.108 175.829L817.857 444.257C815.303 458.251 807.641 468.428 794.87 474.789C782.099 481.15 763.582 484.33 739.318 484.33C718.459 484.33 703.773 482.104 695.259 477.651C686.745 473.199 682.488 465.672 682.488 455.07C682.488 452.95 682.914 449.346 683.765 444.257L714.415 271.241L598.84 271.241L512.639 759.119L656.947 759.119C668.015 759.119 676.103 761.346 681.211 765.798C686.319 770.251 688.874 778.626 688.874 790.924C688.874 799.405 687.596 810.642 685.042 824.636C682.062 842.447 678.444 856.017 674.187 865.346C669.93 874.675 664.716 881.036 658.543 884.428C652.371 887.821 644.176 889.517 633.96 889.517L198.481 889.517C186.987 889.517 178.686 887.185 173.578 882.52C168.47 877.855 165.915 869.374 165.915 857.077C165.915 846.475 166.98 835.662 169.108 824.636C173.791 798.769 179.963 781.382 187.625 772.477C195.288 763.572 206.569 759.119 221.468 759.119L353.005 759.119L439.207 271.241L323.633 271.241L292.983 444.257C290.429 458.251 282.767 468.428 269.996 474.789C257.226 481.15 238.708 484.33 214.444 484.33C193.585 484.33 178.899 482.104 170.385 477.651C161.871 473.199 157.614 465.672 157.614 455.07C157.614 452.95 158.04 449.346 158.892 444.257L206.143 175.829C208.697 161.411 213.805 150.915 221.468 144.342C229.13 137.769 240.411 134.483 255.31 134.483L831.266 134.483Z" fill="#000000" fill-rule="nonzero" stroke="none"></path></g><path d="M-5.68434e-14 512C-5.68434e-14 229.23 229.23 7.80501e-14 512 7.80501e-14C794.77 7.80501e-14 1024 229.23 1024 512C1024 794.77 794.77 1024 512 1024C229.23 1024-5.68434e-14 794.77-5.68434e-14 512Z" fill="none" stroke="#000000" stroke-linecap="butt" stroke-linejoin="round" stroke-width="0"></path></g></svg>